# xmcd
#
# Track frame offsets:
#	150
#	22432
#	46702
#	70490
#	93820
#	117090
#	138340
#	168867
#	189780
#	212795
#	234982
#	254947
#
# Disc length: 3803 seconds
#
# Revision: 1
# Processed by: cddbd v1.5.1PL0 Copyright (c) Steve Scherf et al.
# Submitted via: CDex 1.50Beta5
#
DISCID=a50ed90c
DTITLE=柿原朱美 - Friends in Love
DYEAR=1997
DGENRE=
TTITLE0=retour
TTITLE1=太陽の下で
TTITLE2=泣きたかった
TTITLE3=MAKE YOUR TEARS SHINE
TTITLE4=星空へつづくハイウェイ
TTITLE5=いつもそばに
TTITLE6=WISHING ON THE STAR
TTITLE7=日曜日のあとの月曜日
TTITLE8=SEPTEMBER TOKYO TOWER
TTITLE9=誰もいないハート
TTITLE10=空に近い週末
TTITLE11=PEACE OF HEAVEN
EXTD=
EXTT0=
EXTT1=
EXTT2=
EXTT3=
EXTT4=
EXTT5=
EXTT6=
EXTT7=
EXTT8=
EXTT9=
EXTT10=
EXTT11=
PLAYORDER=
